<?xml version="1.0" encoding="utf-8"?>
<!-- Generator: Adobe Illustrator 16.0.0, SVG Export Plug-In . SVG Version: 6.00 Build 0)  -->
<!DOCTYPE svg PUBLIC "-//W3C//DTD SVG 1.1//EN" "http://www.w3.org/Graphics/SVG/1.1/DTD/svg11.dtd">
<svg version="1.1" id="Modo_de_aislamiento" xmlns="http://www.w3.org/2000/svg" xmlns:xlink="http://www.w3.org/1999/xlink"
	 x="0px" y="0px" width="923.449px" height="813.346px" viewBox="0 0 923.449 813.346" enable-background="new 0 0 923.449 813.346"
	 xml:space="preserve">
<path d="M133.056,734.654c0.186-2.273,0.152-4.739-0.046-7.552l-1.681-20.7c-0.233-2.749-0.171-5.984,0.046-10.618
	c-1.151,2.871-3.163,7.31-4.916,10.618l-10.899,20.783c-1.88,3.511-2.851,5.562-3.522,7.469H95.355
	c0.049-2.054-0.026-3.531-0.349-7.627l-3.87-42.248c-0.354-3.584-0.795-6.816-1.193-8.718h19.075
	c-0.478,2.548-0.555,4.786-0.573,7.748l0.516,21.396c0.014,1.04-0.147,4.364-0.394,9.922c2.585-5.904,3.75-8.438,4.6-9.922
	l11.618-21.823c1.742-3.184,2.732-5.348,3.505-7.319h14.938c-0.095,1.831-0.032,3.794,0.309,7.119l1.865,21.67
	c0.181,2.238,0.234,4.571,0.035,10.275c0.467-1.329,0.467-1.329,1.632-4.273c0.603-1.568,1.943-4.925,2.554-6.07l10.012-20.973
	c1.57-3.241,2.377-5.273,2.992-7.748h19.041c-1.266,1.9-3.191,5.209-5.092,8.718l-22.932,42.195c-1.852,3.309-3.211,5.97-3.827,7.68
	L133.056,734.654L133.056,734.654z"/>
<path d="M205.925,676.055c-1.156,2.888-1.861,5.293-3.013,10.435l-8.562,37.719c-1.089,4.86-1.514,7.464-1.689,10.439h-18.414
	c1.107-2.755,1.975-5.711,3.039-10.439l8.515-37.719c1.202-5.289,1.496-7.315,1.704-10.435H205.925z"/>
<path d="M215.459,734.654c-5.785,0-9.228,0.053-12.453,0.2c1.065-2.475,1.912-5.536,3.013-10.285l8.391-37.172
	c1.111-4.919,1.637-7.938,1.897-11.336h18.24c-1.387,3.662-1.947,5.609-3.176,11.119l-7.895,34.928h20.284
	c7.111,0,9.963-0.059,14.011-0.491l-3.059,13.522c-3.036-0.375-7.089-0.485-13.803-0.485H215.459z"/>
<path d="M272.912,734.654c-5.796,0-9.229,0.053-12.453,0.2c1.064-2.475,1.925-5.536,2.991-10.285l8.424-37.172
	c1.113-4.919,1.625-7.938,1.899-11.336h18.24c-1.414,3.662-1.943,5.609-3.194,11.119l-7.884,34.928h20.278
	c7.097,0,9.953-0.059,14.011-0.491l-3.059,13.522c-3.022-0.375-7.084-0.485-13.81-0.485H272.912z"/>
<path d="M349.373,724.208c-0.802,3.651-1.36,6.761-1.682,10.444h-18.264c1.165-3.278,2.138-6.487,3.015-10.444l2.964-13.024
	l-13.248-26.595c-1.004-2.211-2.336-4.519-4.759-8.534h21.172c0.354,2.475,0.881,4.302,2.275,7.398l6.058,14.309l12.53-14.238
	c2.823-3.258,4.508-5.415,5.507-7.469h21.195c-3.085,2.96-7.165,6.977-8.609,8.534l-25.187,26.595L349.373,724.208z"/>
<path d="M418.963,734.654c-6.374,0-8.838,0.053-12.455,0.2c1.202-3.029,1.914-5.421,3.04-10.344l8.688-38.502
	c0.85-3.777,1.354-6.776,1.621-10.181c4.218,0.228,5.396,0.228,12.27,0.228h21.94c13.585,0,20.286,5.5,18.18,14.787
	c-0.957,4.286-3.396,7.659-7.133,10.065c-2.129,1.355-3.802,2.042-7.479,3.108c3.928,0.765,5.912,1.62,7.943,3.351
	c2.995,2.703,3.974,6.503,2.946,11.142c-2.282,10.154-12.188,16.146-26.787,16.146H418.963L418.963,734.654z M426.282,723.01h15.421
	c5.266,0,8.996-2.464,9.954-6.603c0.929-4.086-1.733-6.48-7.085-6.48h-15.336L426.282,723.01z M446.521,698.655
	c4.446,0,7.699-2.169,8.481-5.627c0.795-3.467-1.369-5.425-6.167-5.425h-14.573l-2.488,11.052H446.521z"/>
<path d="M550.637,676.055c-1.165,3.035-1.912,5.584-3.077,10.635l-5.466,24.215c-3.629,16.063-17.159,25.138-37.351,25.138
	c-10.403,0-18.278-2.454-22.312-6.883c-3.871-4.369-4.987-10.52-3.211-18.397l5.431-24.071c1.094-4.866,1.634-7.96,1.729-10.635
	h18.115c-1.098,2.622-1.912,5.44-3.101,10.635l-5.467,24.215c-2.001,8.881,1.825,13.083,11.621,13.083
	c10.049,0,15.772-4.202,17.774-13.083l5.48-24.215c1.201-5.271,1.544-7.462,1.727-10.635L550.637,676.055L550.637,676.055z"/>
<path d="M567.224,715.58c-0.235,2.508,0.054,3.784,1.016,5.177c1.516,2.133,4.781,3.326,9.064,3.326
	c6.418,0,10.816-2.407,11.713-6.35c0.492-2.153-0.426-4.092-2.409-4.94c-1.587-0.687-3.564-1.16-11.896-2.871
	c-7.394-1.408-9.877-2.252-12.595-4.097c-4.553-3.074-6.343-7.805-5.055-13.504c2.463-10.825,14.391-17.653,30.896-17.653
	c10.638,0,18.134,2.732,21.485,7.989c1.544,2.327,2.084,4.443,2.273,8.454l-18.137,1.631c0.034-4.568-2.547-6.476-8.916-6.476
	c-5.123,0-9.423,2.312-10.157,5.553c-0.43,1.979,0.493,3.479,2.94,4.522c1.521,0.629,1.521,0.629,11.025,2.307
	c6.101,1.146,9.862,2.339,12.669,4.038c5.301,3.139,7.246,7.88,5.802,14.345c-1.216,5.304-4.229,9.789-8.803,12.962
	c-5.749,3.941-13.586,5.995-23.386,5.995c-7.113,0-13.881-1.287-17.9-3.468c-3.737-1.963-6.165-4.992-7.004-8.992
	c-0.466-1.7-0.524-3.331-0.363-6.55L567.224,715.58z"/>
<path d="M664.929,696.486c-0.133-6.408-3.858-9.579-11.056-9.579c-10.225,0-17.702,6.754-20.324,18.366
	c-2.605,11.475,2.021,18.456,12.406,18.456c4.598,0,8.922-1.615,11.951-4.438c1.828-1.693,2.724-3.114,3.91-6.055l16.927,2.182
	c-2.953,5.984-5.566,9.44-9.872,12.894c-6.326,4.976-15.069,7.685-25.186,7.685c-10.204,0-18.24-2.709-23.054-7.764
	c-4.983-5.289-6.65-13.532-4.521-22.958c2.16-9.585,7.505-17.67,15.354-23.146c6.862-4.726,15.923-7.354,25.725-7.354
	c10.802,0,18.548,3.12,22.621,9.237c2.034,2.896,2.867,5.499,3.011,9.65L664.929,696.486z"/>
<path d="M758.488,676.055c-1.137,2.888-1.881,5.5-3.014,10.435l-8.533,37.719c-1.039,4.577-1.409,7-1.687,10.439h-18.008
	c1.16-2.977,1.925-5.579,3.023-10.439l3.081-13.642h-28.218l-3.116,13.642c-1.019,4.577-1.443,7.264-1.67,10.439h-18.021
	c1.188-2.876,1.915-5.488,3.058-10.439l8.509-37.719c1.101-4.851,1.503-7.398,1.702-10.435h18.005
	c-1.252,3.313-2.048,6.069-3.02,10.435l-2.657,11.681h28.229l2.646-11.681c1.104-4.851,1.571-7.689,1.688-10.435H758.488z"/>
<path d="M347.25,126.561c-1.646,7.306-2.208,10.081-2.32,13.48h-19.756c1.401-3.399,2.301-6.514,3.812-13.253l9.068-40.104
	c1.162-5.13,1.557-7.669,1.822-11.315c3.754,0.138,6.303,0.228,13.377,0.228h26.578c8.079,0,11.129-0.09,15.53-0.561l-3.3,14.74
	c-3.963-0.396-7.514-0.559-15.248-0.559h-21.146l-2.855,12.693h17.292c7.165,0,10.703-0.145,14.822-0.508l-3.234,14.313
	c-3.972-0.364-7.611-0.555-14.59-0.555h-17.271L347.25,126.561z"/>
<path d="M423.266,75.6c-1.266,3.177-2.083,5.79-3.348,11.458l-9.382,41.508c-1.221,5.348-1.677,8.213-1.87,11.476h-20.214
	c1.235-3.03,2.146-6.254,3.334-11.476l9.389-41.508c1.297-5.806,1.641-8.043,1.866-11.458H423.266z"/>
<path d="M433.698,140.041c-6.327,0-10.123,0.084-13.642,0.222c1.129-2.702,2.106-6.112,3.271-11.31l9.244-40.876
	c1.236-5.442,1.819-8.783,2.11-12.478h20.032c-1.56,4.017-2.142,6.175-3.511,12.245l-8.712,38.417h22.269
	c7.825,0,10.957-0.058,15.394-0.543l-3.37,14.888c-3.317-0.417-7.779-0.563-15.133-0.563h-27.952V140.041z"/>
<path d="M516.812,128.356c-1.058,4.612-1.635,8.043-1.899,11.686h-20.305c1.342-3.643,2.251-6.804,3.354-11.686l8.838-39.028h-10.85
	c-5.787,0-7.364,0.053-13.998,0.522l3.366-14.814c2.946,0.338,7.944,0.564,13.574,0.564h40.25c6.437,0,10.152-0.153,14.453-0.564
	l-3.344,14.814c-4.034-0.407-7.597-0.522-14.229-0.522h-10.374L516.812,128.356z"/>
<path d="M592.453,140.041c0-2.486-0.384-5.664-1.771-12.065c-1.407-6.733-2.127-8.549-4.034-10.249
	c-1.591-1.452-3.75-2.08-6.691-2.08h-9.385l-2.869,12.709c-1.188,5.268-1.645,8.122-1.899,11.686h-19.765
	c1.341-3.563,2.051-5.891,3.348-11.606l9.43-41.694c1.079-4.797,1.559-7.663,1.835-11.373c4.012,0.138,7.406,0.228,13.667,0.228
	h23.896c14.883,0,22.065,6.496,19.518,17.653c-1.251,5.5-4.043,9.848-8.286,12.714c-2.685,1.789-4.811,2.633-9.611,3.874
	c4.412,1.246,6.142,3.023,7.81,8.534c0.846,2.453,1.527,5.088,3.764,13.458c0.525,2.164,1.188,4.102,2.562,8.213H592.453
	L592.453,140.041z M587.904,102.395c5.44,0,9.365-2.808,10.369-7.22c0.978-4.333-1.444-6.571-7.151-6.571h-14.437l-3.117,13.791
	H587.904z"/>
<path d="M700.886,107.503c-4.641,20.472-22.493,34.005-44.839,34.005c-22.498,0-34.042-13.237-29.396-33.757
	c4.608-20.467,22.108-33.562,44.719-33.562C693.993,74.191,705.457,87.179,700.886,107.503 M681.727,107.651
	c2.84-12.528-2.256-20.134-13.377-20.134c-11.219,0-19.818,7.658-22.655,20.134c-2.873,12.636,2.27,20.473,13.476,20.473
	C670.291,128.124,678.855,120.371,681.727,107.651"/>
<path d="M724.316,119.056c-0.26,2.771,0.088,4.187,1.105,5.716c1.687,2.317,5.266,3.663,9.94,3.663
	c7.084,0,11.898-2.639,12.883-6.982c0.546-2.396-0.442-4.507-2.636-5.436c-1.752-0.775-3.921-1.325-13.081-3.162
	c-8.098-1.536-10.821-2.485-13.754-4.502c-5.025-3.403-6.973-8.603-5.566-14.878c2.691-11.927,15.782-19.417,33.92-19.417
	c11.634,0,19.888,3.003,23.541,8.819c1.717,2.544,2.304,4.855,2.502,9.257l-19.889,1.821c0.026-5.035-2.809-7.146-9.805-7.146
	c-5.595,0-10.303,2.57-11.121,6.148c-0.5,2.164,0.527,3.769,3.188,4.955c1.706,0.671,1.706,0.671,12.109,2.56
	c6.719,1.22,10.834,2.534,13.915,4.407c5.808,3.473,7.944,8.682,6.339,15.802c-1.312,5.805-4.646,10.756-9.646,14.234
	c-6.325,4.354-14.934,6.586-25.692,6.586c-7.801,0-15.195-1.377-19.615-3.794c-4.121-2.144-6.771-5.494-7.694-9.896
	c-0.495-1.868-0.551-3.646-0.397-7.22L724.316,119.056z"/>
<path fill="#BF201B" d="M517.813,498.688l39.312-173.764h-93.459l-39.308,173.764c-3.788,16.809-18.869,30.493-33.591,30.493
	c-14.729,0-23.62-13.686-19.821-30.493l39.312-173.764h-1.977h-91.482h-1.96l-39.305,173.764
	c-3.81,16.809-18.87,30.493-33.604,30.493c-14.744,0-23.614-13.686-19.821-30.493l68.832-304.324h-93.443l-68.832,304.324
	c-17.104,75.613,22.898,137.125,89.132,137.125c28.105,0,56.457-11.146,81.146-29.655c16.299,18.509,39.581,29.655,67.703,29.655
	C432.91,635.813,500.714,574.301,517.813,498.688"/>
<path fill="#BF201B" d="M833.947,330.175c17.101-75.592-22.89-137.167-89.146-137.167H312.523L288.395,299.67h432.287
	c14.731,0,23.603,13.7,19.811,30.505c-3.787,16.825-18.882,30.479-33.628,30.479h-135.92l-24.12,106.667h1.127l-0.512,2.233h134.824
	c14.724,0,23.625,13.685,19.813,30.488c-3.792,16.81-18.87,30.482-33.604,30.482H528.215
	c-17.329,47.109-53.082,86.671-94.131,106.679h210.265c66.279,0,134.085-61.543,151.199-137.161
	c7.25-32.083,4.151-61.574-6.812-84.944C810.253,391.729,826.688,362.237,833.947,330.175"/>
</svg>
